<?xml version="1.0" encoding="UTF-8"?>
<svg version="1.1" xmlns="http://www.w3.org/2000/svg" width="641" height="652">
<path d="M0 0 C1.72528545 0.06759146 3.4505713 0.13517256 5.17585754 0.20274353 C6.03901801 0.23658048 6.90217848 0.27041742 7.79149532 0.30527973 C41.70956013 1.63424153 75.57799932 2.56829558 109.52526474 2.57313156 C112.29026064 2.57419664 115.05523048 2.57886843 117.82022095 2.58425903 C139.81661615 2.61705671 161.6641458 1.94687626 183.6168766 0.58989716 C191.69636528 0.10017726 199.75507591 -0.08463934 207.84765625 -0.05078125 C208.5722403 -0.04929077 209.29682434 -0.04780029 210.04336548 -0.04626465 C255.12675711 0.11670422 294.48690495 10.54812157 327.03515625 43.00390625 C339.65249451 56.03780303 348.55719936 71.86505452 354.53515625 88.94921875 C354.76936279 89.59407227 355.00356934 90.23892578 355.24487305 90.90332031 C360.12056387 105.63703213 360.93765539 121.91975248 361.9453125 137.30078125 C362.00799883 138.23340412 362.07068516 139.16602699 362.13527107 140.12691116 C363.62884437 162.82145416 363.79402867 185.50074135 363.7309761 208.23672104 C363.72250571 211.6982376 363.71992838 215.15972021 363.71847534 218.62124634 C363.68046974 266.79073305 362.00944255 314.87243457 359.99488831 362.99378967 C358.81122139 391.31514964 358.11507538 419.57663566 358.15478516 447.92407227 C358.16052485 452.03113193 358.15706372 456.13812734 358.15133858 460.2451849 C358.13074405 477.73550707 358.2995395 495.17544707 359.16235352 512.64897156 C360.71204104 545.62007563 350.61597019 575.83149757 329.28515625 601.26171875 C328.61742187 602.0815625 327.9496875 602.90140625 327.26171875 603.74609375 C304.84274559 630.28283749 269.45057481 643.89257174 235.58569336 646.78173828 C233.47412633 646.94857634 231.36220433 647.11096537 229.25 647.26953125 C228.10997025 647.3555661 226.96994049 647.44160095 225.79536438 647.53024292 C214.19598983 648.37959685 202.59467477 648.9599646 190.97265625 649.38671875 C189.28065598 649.44925842 189.28065598 649.44925842 187.55447388 649.51306152 C120.65349574 651.90367891 53.70758803 649.62340072 -13.16015625 647.2734375 C-15.6770517 647.18526576 -18.19394827 647.09712609 -20.71084595 647.00901794 C-23.25628696 646.91984004 -25.80172763 646.83065237 -28.34716797 646.74145508 C-30.25181918 646.67474373 -30.25181918 646.67474373 -32.1949482 646.60668468 C-38.61753823 646.38141778 -45.04005715 646.15437078 -51.46246338 645.92391968 C-76.49760581 645.02749322 -101.52238098 644.15791129 -126.57421875 643.95703125 C-127.92515782 643.9452909 -127.92515782 643.9452909 -129.3033886 643.93331337 C-137.52730505 643.86325514 -145.75016154 643.81408255 -153.97435665 643.84625721 C-168.5334617 643.89219267 -182.08546968 643.91898832 -195.71484375 638.26171875 C-196.71749268 637.86476807 -197.7201416 637.46781738 -198.75317383 637.05883789 C-201.37499392 635.95966436 -203.91775831 634.77332835 -206.46484375 633.51171875 C-207.35042969 633.07980225 -208.23601562 632.64788574 -209.1484375 632.20288086 C-239.23588506 617.18386393 -261.44123008 591.34083484 -272.52734375 559.69921875 C-277.00996553 546.2189879 -278.15427346 533.24412613 -278.07801819 519.16085815 C-278.07949543 517.37683882 -278.08227827 515.59282018 -278.08623976 513.80880463 C-278.09320964 508.94628023 -278.0815024 504.08395926 -278.06645191 499.22145987 C-278.05343808 493.96156001 -278.057837 488.70166883 -278.05981445 483.4417572 C-278.06072892 473.15159938 -278.04493832 462.86153349 -278.02246118 452.57140259 C-278.00425378 444.2014243 -277.99089857 435.83145217 -277.98092461 427.46146011 C-277.9520641 403.69527051 -277.91065561 379.92915141 -277.8529206 356.16301416 C-277.84981374 354.88364331 -277.84670687 353.60427247 -277.84350586 352.28613281 C-277.8403926 351.00518766 -277.83727935 349.7242425 -277.83407175 348.40448083 C-277.78439954 327.65235866 -277.76457886 306.90032971 -277.75836165 286.14815317 C-277.7516271 264.80496874 -277.72256662 243.46191471 -277.67041868 222.1187917 C-277.64162618 210.15029336 -277.62186172 198.18194207 -277.6261158 186.21340561 C-277.62956026 176.02248597 -277.61211254 165.83186013 -277.56822181 155.64103012 C-277.54644543 150.44945456 -277.53395348 145.25832648 -277.54782677 140.06671333 C-277.64214843 100.11909796 -277.64214843 100.11909796 -270.71484375 83.26171875 C-270.19923633 81.90739264 -269.6860734 80.55213291 -269.17556858 79.19587517 C-264.41154086 66.9475318 -257.21829061 56.20945334 -248.71484375 46.26171875 C-248.039375 45.44058594 -247.36390625 44.61945312 -246.66796875 43.7734375 C-221.17357501 13.85939521 -180.7802492 3.49184407 -143.16943359 0.39648438 C-95.56290779 -3.11964387 -47.65294472 -1.87398802 0 0 Z M-37.71484375 86.26171875 C-38.8494101 86.35646484 -38.8494101 86.35646484 -40.00689697 86.453125 C-87.26294545 90.48427107 -131.38594071 98.1974618 -164.3359375 135.32421875 C-178.78678841 153.1682908 -185.9722863 175.35019052 -189.96484375 197.63671875 C-190.19143677 198.8887207 -190.19143677 198.8887207 -190.42260742 200.16601562 C-193.69446246 219.96322988 -194.27949867 240.1609944 -195.18457031 260.1697998 C-195.30719702 262.85225901 -195.43506974 265.53445678 -195.56298542 268.21666813 C-196.8832361 295.94965486 -197.93045796 323.68019144 -197.90234375 351.44921875 C-197.9017395 352.57894104 -197.90113525 353.70866333 -197.9005127 354.87261963 C-198.47711599 439.68773268 -198.47711599 439.68773268 -161.71484375 513.26171875 C-160.833125 514.23625 -159.95140625 515.21078125 -159.04296875 516.21484375 C-122.80203239 555.00479868 -67.70306687 559.00245494 -18.0234375 560.8046875 C-0.04794846 561.41062679 17.92600722 561.46061818 35.91015625 561.44921875 C36.75005978 561.44909916 37.5899633 561.44897957 38.45531845 561.44885635 C65.43530975 561.44401007 92.36276791 561.20872256 119.28515625 559.26171875 C120.02697144 559.20844421 120.76878662 559.15516968 121.53308105 559.10028076 C166.80252745 555.79400191 211.20855018 549.57365605 242.65625 513.484375 C247.13765424 508.12471385 250.82002689 502.31566407 254.28515625 496.26171875 C254.63175293 495.65908203 254.97834961 495.05644531 255.33544922 494.43554688 C277.12543018 455.74783996 277.55116739 408.47984288 279.28515625 365.26171875 C279.31544922 364.52612732 279.34574219 363.79053589 279.37695312 363.03265381 C286.59022675 238.81295237 286.59022675 238.81295237 239.12890625 129.2265625 C199.08320312 86.54842725 132.42748185 86.39810961 78.33770752 84.58851624 C63.67636001 84.13925466 49.01503936 84.06160844 34.34765625 84.07421875 C33.29428762 84.07461906 33.29428762 84.07461906 32.21963882 84.07502747 C8.86901153 84.08610867 -14.43213597 84.31723739 -37.71484375 86.26171875 Z " fill="#000000" transform="translate(277.71484375,1.73828125)"/>
<path d="M0 0 C1.18916016 1.16789062 1.18916016 1.16789062 2.40234375 2.359375 C3.54509766 3.46539062 3.54509766 3.46539062 4.7109375 4.59375 C37.94578567 38.92298658 33.55670122 97.17920884 33.5703125 141.1015625 C33.57354138 143.60897845 33.57690654 146.11639422 33.58039856 148.62380981 C33.58633342 153.84589066 33.5882444 159.06795509 33.58764648 164.29003906 C33.58756538 169.56839435 33.59449235 174.84666255 33.6081543 180.125 C33.93544981 308.52029488 33.93544981 308.52029488 1.52734375 342.671875 C-32.06290185 375.0680315 -95.58798199 370.51202811 -139.0625 370.52734375 C-141.27315795 370.53057419 -143.48381571 370.53393944 -145.69447327 370.53742981 C-150.30567925 370.54336872 -154.91686665 370.54527544 -159.52807617 370.54467773 C-164.16906676 370.54459696 -168.80995761 370.55146969 -173.45092773 370.56518555 C-195.97700533 370.63066853 -218.48022192 370.66395561 -240.98046875 369.46484375 C-242.11397672 369.40562272 -242.11397672 369.40562272 -243.27038383 369.34520531 C-276.62739423 367.54314947 -310.84839141 362.69546347 -335.59765625 338.359375 C-336.64759766 337.32876953 -336.64759766 337.32876953 -337.71875 336.27734375 C-358.1778547 314.78132537 -361.64274044 283.58551969 -363.59765625 255.359375 C-363.6764502 254.28598877 -363.6764502 254.28598877 -363.75683594 253.19091797 C-364.13615511 247.91736319 -364.38546981 242.64208576 -364.59765625 237.359375 C-364.64277344 236.25335938 -364.68789063 235.14734375 -364.734375 234.0078125 C-367.11635044 172.84898373 -368.33111715 108.82839273 -357.59765625 48.359375 C-357.45247559 47.53824219 -357.30729492 46.71710938 -357.15771484 45.87109375 C-353.50038777 26.33160237 -342.66617497 6.89939367 -326.47265625 -4.921875 C-299.88504347 -23.09606953 -267.54779593 -26.04436817 -236.19140625 -27.17578125 C-235.02131012 -27.21893967 -233.85121399 -27.26209808 -232.6456604 -27.30656433 C-228.7965029 -27.44466503 -224.94717548 -27.5755127 -221.09765625 -27.703125 C-220.0999332 -27.73623024 -220.0999332 -27.73623024 -219.08205414 -27.77000427 C-35.89426048 -33.79617574 -35.89426048 -33.79617574 0 0 Z M-59.91015625 25.734375 C-64.73843169 31.75985226 -66.2526284 37.86959718 -66.0078125 45.5546875 C-64.81471286 53.71321647 -59.98504099 60.34966148 -53.59765625 65.359375 C-47.18216026 69.41815818 -39.9969528 69.32795245 -32.59765625 68.359375 C-23.44615726 65.33035773 -16.16991763 59.98574669 -11.16015625 51.734375 C-8.43176891 45.6634179 -8.43284085 38.32498249 -10.29296875 31.9921875 C-11.23944878 29.94810878 -12.29598995 28.19630594 -13.59765625 26.359375 C-14.23380859 25.43705078 -14.23380859 25.43705078 -14.8828125 24.49609375 C-19.6345583 18.3148534 -25.78981519 14.50232957 -33.53515625 13.359375 C-44.50105888 12.79832882 -52.66882807 17.94149602 -59.91015625 25.734375 Z M-245.59765625 78.359375 C-246.11956543 78.81570312 -246.64147461 79.27203125 -247.17919922 79.7421875 C-271.31319824 100.92403704 -287.47121457 128.8551951 -289.59765625 161.359375 C-291.46191128 194.89256486 -280.07193773 226.31808484 -257.81787109 251.36230469 C-235.1167658 275.99194596 -204.18975895 292.13263744 -170.4296875 293.640625 C-139.33490858 294.46695981 -108.54528687 284.46399803 -84.59765625 264.359375 C-83.31181641 263.28236328 -83.31181641 263.28236328 -82 262.18359375 C-59.20112975 242.34470047 -43.71963731 215.02862442 -41.29467773 184.55151367 C-41.16235873 180.73207005 -41.13004436 176.93093489 -41.16015625 173.109375 C-41.1628653 172.43849854 -41.16557434 171.76762207 -41.16836548 171.07641602 C-41.23744627 159.73708081 -42.41046985 149.2386617 -45.59765625 138.359375 C-45.92507813 137.12445313 -46.2525 135.88953125 -46.58984375 134.6171875 C-51.48274385 118.00989882 -60.33145486 102.44038714 -71.59765625 89.359375 C-72.37496094 88.4209375 -73.15226563 87.4825 -73.953125 86.515625 C-94.76767237 62.33951126 -125.54393494 48.96855301 -156.98046875 46.51953125 C-190.32057199 44.47931598 -220.78380094 56.36608742 -245.59765625 78.359375 Z " fill="#000000" transform="translate(483.59765625,153.640625)"/>
<path d="M0 0 C0.6084375 0.51691406 1.216875 1.03382813 1.84375 1.56640625 C15.50511003 13.95477591 24.00577261 34.67704285 25.18017578 52.77685547 C26.37654746 79.67592204 20.34355284 101.39516569 3.0703125 122.33984375 C-9.71545562 136.19566543 -30.33800772 145.07517964 -48.99755859 146.17700195 C-73.1801932 146.64731354 -94.20749753 144.87210076 -113 128 C-113.80953125 127.28328125 -114.6190625 126.5665625 -115.453125 125.828125 C-132.55191957 109.77833623 -141.14060557 87.27633741 -142.125 64.05078125 C-142.57750101 40.60557273 -135.78025569 18.54903683 -119.46875 1.34375 C-88.16375105 -28.37618571 -32.04518763 -29.23525513 0 0 Z " fill="#000000" transform="translate(377,262)"/>
</svg>
