<?xml version="1.0" encoding="UTF-8"?>
<svg version="1.1" xmlns="http://www.w3.org/2000/svg" width="521" height="252">
<path d="M0 0 C171.93 0 343.86 0 521 0 C521 83.16 521 166.32 521 252 C349.07 252 177.14 252 0 252 C0 168.84 0 85.68 0 0 Z " fill="#FDFDFD" transform="translate(0,0)"/>
<path d="M0 0 C8.35741327 4.6314617 12.44292761 13.4530344 15.19921875 22.21875 C17.39213867 32.38719397 17.75243344 44.68424061 13.19921875 54.21875 C12.89757812 54.91226563 12.5959375 55.60578125 12.28515625 56.3203125 C8.67015797 64.1675039 4.2002026 68.95475031 -3.80078125 72.21875 C-9.22731322 74.02759399 -14.64471173 74.05559753 -19.92578125 71.71875 C-29.12287381 66.43453578 -32.76170042 58.02669268 -35.80078125 48.21875 C-39.21962894 34.71756803 -36.58868753 21.84777465 -30.05078125 9.84375 C-23.07833216 -1.17378406 -12.14350078 -4.57765474 0 0 Z " fill="#060606" transform="translate(148.80078125,120.78125)"/>
<path d="M0 0 C2.62527189 -0.05382106 5.24944713 -0.09358313 7.875 -0.125 C8.62136719 -0.14175781 9.36773437 -0.15851563 10.13671875 -0.17578125 C12.09194461 -0.1933959 14.04742021 -0.10320189 16 0 C18.36026704 2.36026704 18.61919395 3.7276939 19.42041016 6.93701172 C19.68052887 7.96502899 19.94064758 8.99304626 20.20864868 10.05221558 C20.48268524 11.16678131 20.7567218 12.28134705 21.0390625 13.4296875 C21.32478119 14.57156525 21.61049988 15.71344299 21.90487671 16.8899231 C22.50832998 19.30842276 23.10830103 21.72779352 23.70507812 24.14794922 C24.6200175 27.85481345 25.54740627 31.55839564 26.4765625 35.26171875 C27.06064131 37.60918964 27.64399868 39.95684018 28.2265625 42.3046875 C28.50464752 43.41520477 28.78273254 44.52572205 29.06924438 45.66989136 C29.32305878 46.70421295 29.57687317 47.73853455 29.83837891 48.80419922 C30.0632901 49.71305878 30.28820129 50.62191833 30.51992798 51.55831909 C31 54 31 54 31 58 C34.56649341 55.62233773 34.63304455 54.768208 35.68359375 50.75 C35.96944336 49.67500244 36.25529297 48.60000488 36.54980469 47.49243164 C36.98921387 45.76367798 36.98921387 45.76367798 37.4375 44 C37.74461914 42.82622803 38.05173828 41.65245605 38.36816406 40.44311523 C40.48338394 32.2731622 42.39124253 24.0710315 44.16015625 15.8203125 C47.2542595 1.7457405 47.2542595 1.7457405 49 0 C50.34267413 -0.08631874 51.68974322 -0.10706473 53.03515625 -0.09765625 C53.84404297 -0.09443359 54.65292969 -0.09121094 55.48632812 -0.08789062 C56.33646484 -0.07951172 57.18660156 -0.07113281 58.0625 -0.0625 C58.91650391 -0.05798828 59.77050781 -0.05347656 60.65039062 -0.04882812 C62.76695663 -0.03700373 64.88348685 -0.01906769 67 0 C66.5359375 1.051875 66.5359375 1.051875 66.0625 2.125 C64.19692603 7.17302368 63.87328433 12.07729284 63.85473633 17.42578125 C63.84835648 18.68148926 63.84197662 19.93719727 63.83540344 21.23095703 C63.83387346 22.59147096 63.8327602 23.95198541 63.83203125 25.3125 C63.82881154 26.72770215 63.82544695 28.14290398 63.82194519 29.55810547 C63.81596924 32.52360808 63.81410347 35.48908164 63.81469727 38.45458984 C63.81479825 42.21520237 63.8012054 45.97562338 63.78392506 49.7361908 C63.77268161 52.66197527 63.77078187 55.58771544 63.77130699 58.51351929 C63.77014307 59.8974981 63.76581308 61.28147869 63.75797462 62.66543579 C63.70993776 72.03069564 64.49251036 80.76312519 66 90 C60.72 90 55.44 90 50 90 C50.33 68.22 50.66 46.44 51 24 C50.34 24 49.68 24 49 24 C48.82984375 24.79921875 48.6596875 25.5984375 48.484375 26.421875 C48.24203125 27.52015625 47.9996875 28.6184375 47.75 29.75 C47.51796875 30.81734375 47.2859375 31.8846875 47.046875 32.984375 C46.28380384 36.16376939 45.23937108 39.18580112 44.14453125 42.265625 C41.02059593 51.4692301 39.33842683 61.03737364 37.42456055 70.54931641 C36.9258886 73.01392944 36.41474914 75.47571157 35.90234375 77.9375 C35.75538559 78.68854004 35.60842743 79.43958008 35.45701599 80.21337891 C34.64455638 84.09105867 33.92345419 87.21168447 31 90 C30.01 90 29.02 90 28 90 C23.19627644 78.98209788 20.61201381 67.68613226 18 56 C17.31976137 52.97746485 16.63359203 49.95642463 15.9375 46.9375 C15.77918701 46.25002686 15.62087402 45.56255371 15.45776367 44.85424805 C14.19741957 39.5247009 12.57756787 34.37650708 10.734375 29.22265625 C10 27 10 27 10 25 C9.34 25 8.68 25 8 25 C8.06731003 32.50763901 8.15723695 40.01476993 8.26245117 47.52197266 C8.2955837 50.07269234 8.32365147 52.62348329 8.34643555 55.17431641 C8.38019609 58.85349729 8.43252414 62.53203198 8.48828125 66.2109375 C8.49467117 67.34050873 8.5010611 68.47007996 8.50764465 69.63388062 C8.63448731 76.55695359 9.60993457 82.49221564 12 89 C11 90 11 90 8.71484375 90.09765625 C7.79832031 90.08605469 6.88179687 90.07445312 5.9375 90.0625 C4.55884766 90.04896484 4.55884766 90.04896484 3.15234375 90.03515625 C2.44207031 90.02355469 1.73179688 90.01195312 1 90 C1.00222061 88.99046265 1.00444122 87.98092529 1.00672913 86.9407959 C1.027038 77.40722813 1.04200941 67.87366478 1.05181217 58.34008026 C1.05702134 53.43927608 1.06408318 48.53848941 1.07543945 43.63769531 C1.08633833 38.90444263 1.09229164 34.17120677 1.09487724 29.4379425 C1.0967189 27.63592769 1.10031513 25.83391375 1.10573006 24.03190613 C1.11303347 21.49976645 1.11398704 18.96769546 1.11352539 16.43554688 C1.11712067 15.69754852 1.12071594 14.95955017 1.12442017 14.19918823 C1.11498086 9.38597212 0.676545 4.7666232 0 0 Z " fill="#030303" transform="translate(41,102)"/>
<path d="M0 0 C9.88099486 8.75403822 12.3027926 19.0385609 13.29296875 31.765625 C13.71168324 43.30856508 12.12268625 55.48441082 4.6875 64.8125 C-0.62875367 69.98044617 -5.77755596 71.13882974 -13.0625 71.375 C-20.176899 71.14262013 -24.75381139 69.60013014 -29.6875 64.375 C-39.42922721 52.48790365 -39.16065576 37.65232237 -38 23 C-36.34436098 12.98581556 -31.48842099 5.0509774 -23.375 -0.9375 C-15.94298044 -4.26235086 -7.04860852 -4.22351493 0 0 Z " fill="#050505" transform="translate(467,122)"/>
<path d="M0 0 C6.5433707 3.51403241 11.02414369 9.25251543 14.375 15.8125 C16.15892486 21.83218958 16.40159393 27.56476049 16.375 33.8125 C15.38056885 33.83755615 14.3861377 33.8626123 13.36157227 33.88842773 C9.68451253 33.98234882 6.0076485 34.08260619 2.33081055 34.18481445 C0.737107 34.22822146 -0.8566448 34.26989219 -2.45043945 34.30981445 C-4.73663908 34.36737807 -7.02259449 34.43111149 -9.30859375 34.49609375 C-10.3836039 34.52116249 -10.3836039 34.52116249 -11.48033142 34.54673767 C-14.84027382 34.36268654 -14.84027382 34.36268654 -17.625 35.8125 C-18.36540641 43.51272665 -16.74414739 52.25947591 -12.31640625 58.72265625 C-9.281138 61.81196488 -7.17325409 62.76681216 -2.875 63.125 C1.62190796 63.02759405 3.9580538 61.858039 7.375 58.8125 C9.08988076 56.47913765 10.65978465 54.10760109 12.17578125 51.640625 C12.57152344 51.03734375 12.96726562 50.4340625 13.375 49.8125 C13.705 49.8125 14.035 49.8125 14.375 49.8125 C15.10016229 56.48399311 12.94492845 61.20820137 9.375 66.8125 C4.36888966 71.81861034 -0.59122009 73.11180749 -7.5625 73.1875 C-13.13780426 73.0886677 -16.49211451 72.84206335 -20.625 68.8125 C-21.13289063 68.338125 -21.64078125 67.86375 -22.1640625 67.375 C-31.1888229 58.12795486 -31.88784988 45.2100054 -31.87158203 32.99633789 C-31.71234841 21.65257853 -28.38866549 11.57616549 -20.1875 3.375 C-13.27529977 -0.83975624 -7.8679796 -2.57744159 0 0 Z " fill="#050505" transform="translate(360.625,120.1875)"/>
<path d="M0 0 C5.02153126 3.81636376 6.62457023 7.93364788 8.10546875 13.97265625 C8.52512919 17.73633331 8.56968483 21.46925064 8.58203125 25.25390625 C8.59761078 26.30743286 8.61319031 27.36095947 8.62924194 28.44641113 C8.67643502 31.78848562 8.70439852 35.13035625 8.73046875 38.47265625 C8.76715857 41.81480927 8.80796861 45.15685203 8.8531189 48.49890137 C8.87998733 50.57020582 8.90148882 52.64158951 8.91665649 54.7130127 C8.97949868 60.53840359 9.36406943 66.19316227 10.10546875 71.97265625 C5.15546875 71.97265625 0.20546875 71.97265625 -4.89453125 71.97265625 C-4.73339844 70.72613281 -4.57226562 69.47960937 -4.40625 68.1953125 C-3.64034265 60.49692694 -3.70850829 52.778769 -3.70922852 45.05004883 C-3.70703342 42.41276097 -3.6887994 39.77588656 -3.66992188 37.13867188 C-3.66698842 35.43619932 -3.66500331 33.73372482 -3.6640625 32.03125 C-3.65687698 31.25599472 -3.64969147 30.48073944 -3.64228821 29.68199158 C-3.66949794 23.06797769 -4.16282886 16.57020984 -7.89453125 10.97265625 C-10.76612775 10.30475261 -10.76612775 10.30475261 -13.89453125 10.97265625 C-18.56725848 14.58340002 -20.32399211 18.13703182 -21.18309021 23.9125824 C-21.84740868 29.56959838 -22.02673686 35.12795931 -21.9921875 40.8203125 C-21.99006508 42.16626747 -21.99006508 42.16626747 -21.98789978 43.53941345 C-21.98235635 46.37136339 -21.96981483 49.2032307 -21.95703125 52.03515625 C-21.95200892 53.96939989 -21.94744731 55.90364478 -21.94335938 57.83789062 C-21.93240554 62.54951042 -21.91518078 67.26106938 -21.89453125 71.97265625 C-26.84453125 71.97265625 -31.79453125 71.97265625 -36.89453125 71.97265625 C-38.20172685 69.35826505 -37.65130415 68.32666054 -36.97363281 65.51342773 C-35.81122286 60.06061612 -35.60444052 54.88051454 -35.62890625 49.3203125 C-35.6269928 48.33953232 -35.62507935 47.35875214 -35.62310791 46.34825134 C-35.62175613 44.28856141 -35.62538157 42.22886267 -35.63378906 40.16918945 C-35.6444912 37.0468396 -35.63386503 33.92506651 -35.62109375 30.80273438 C-35.62241575 28.78775917 -35.62497897 26.77278431 -35.62890625 24.7578125 C-35.62485779 23.83976334 -35.62080933 22.92171417 -35.61663818 21.97584534 C-35.65786622 16.16964067 -36.35049082 10.77807203 -37.56402588 5.09739685 C-37.67309265 4.39623245 -37.78215942 3.69506805 -37.89453125 2.97265625 C-36.01628234 1.09440734 -32.85517849 1.58163228 -30.33203125 1.41015625 C-29.13449219 1.32636719 -27.93695313 1.24257812 -26.703125 1.15625 C-25.77628906 1.09566406 -24.84945312 1.03507812 -23.89453125 0.97265625 C-23.56453125 4.60265625 -23.23453125 8.23265625 -22.89453125 11.97265625 C-22.23453125 11.97265625 -21.57453125 11.97265625 -20.89453125 11.97265625 C-20.80171875 10.92078125 -20.80171875 10.92078125 -20.70703125 9.84765625 C-19.59744246 5.921419 -17.76611426 3.84423926 -14.89453125 0.97265625 C-10.19385074 -1.2754953 -4.81392833 -2.61043949 0 0 Z " fill="#020202" transform="translate(205.89453125,120.02734375)"/>
<path d="M0 0 C4.77098032 2.75700092 8.8606917 7.0820751 10.625 12.375 C10.7027346 14.70703812 10.71467728 17.04339059 10.625 19.375 C9.35660474 19.88115298 8.08516898 20.37969099 6.8125 20.875 C6.10480469 21.1534375 5.39710938 21.431875 4.66796875 21.71875 C2.625 22.375 2.625 22.375 -0.375 22.375 C-0.47296875 21.72273438 -0.5709375 21.07046875 -0.671875 20.3984375 C-1.60338328 14.9539322 -2.45285328 10.50915465 -6.375 6.375 C-10.3033509 5.08935789 -12.29708607 4.87364468 -16.0625 6.625 C-22.30746429 14.05144402 -23.06760382 23.39761988 -22.9375 32.75 C-22.92871826 33.84401123 -22.91993652 34.93802246 -22.91088867 36.06518555 C-22.7081323 44.10665873 -21.97944551 51.51949224 -17.375 58.375 C-14.22228303 61.33572459 -12.90910286 62.29619794 -8.5625 62.9375 C-3.64840652 62.65007189 0.00367875 60.63961723 3.625 57.375 C5.14325226 55.29557095 6.4145004 53.22423177 7.6171875 50.94921875 C7.94976562 50.42972656 8.28234375 49.91023438 8.625 49.375 C9.285 49.375 9.945 49.375 10.625 49.375 C10.43114061 56.988387 8.52030228 62.52743427 3.03125 67.94921875 C-3.16629417 73.25054943 -8.44409551 72.88789682 -16.375 72.375 C-21.91337306 71.19747203 -26.75370808 67.64449453 -30.375 63.375 C-37.3117168 51.40504542 -39.26405006 38.29251282 -36.6875 24.765625 C-33.89986986 14.86953802 -29.13175102 6.14348609 -20.375 0.375 C-13.93996465 -2.69482834 -6.54572367 -2.98097473 0 0 Z " fill="#070706" transform="translate(313.375,120.625)"/>
<path d="M0 0 C5.59599343 4.06981341 7.36835433 9.53033523 8.5625 16.08984375 C10.0476231 29.36313147 11.25706737 45.92684681 3.9375 57.6875 C1.45398762 60.65169219 0.59124218 60.90903966 -3.25 61.5 C-7.8031104 60.89291861 -8.88657402 59.6876713 -11.73828125 56.3125 C-15.79478783 48.8776644 -15.27288545 40.79096137 -15.1875 32.5625 C-15.18685547 31.38623047 -15.18621094 30.20996094 -15.18554688 28.99804688 C-15.09550912 11.1005422 -15.09550912 11.1005422 -12.125 5.5625 C-11.63386719 4.60537109 -11.63386719 4.60537109 -11.1328125 3.62890625 C-8.18268303 -0.61317647 -4.74671702 -0.57287964 0 0 Z " fill="#F9F9F9" transform="translate(142,126)"/>
<path d="M0 0 C4.8747904 3.79150364 6.57889848 7.35573014 7.53125 13.3359375 C8.24075916 19.31171725 8.22353678 25.30204145 8.25 31.3125 C8.270625 32.47201172 8.29125 33.63152344 8.3125 34.82617188 C8.35138141 43.47242565 7.86323702 51.94374755 2.75 59.1875 C-0.85772462 61.5653185 -2.75773649 61.75754706 -7 61 C-12.43052681 57.29736809 -13.74237785 52.16135044 -15 46 C-15.4127789 41.20039228 -15.41985784 36.43974183 -15.375 31.625 C-15.38660156 30.3875 -15.39820313 29.15 -15.41015625 27.875 C-15.38163499 18.84326684 -15.03096967 9.3780673 -9.75 1.75 C-6.13650252 -0.5494984 -4.20835902 -0.75149268 0 0 Z " fill="#FBFBFB" transform="translate(458,126)"/>
<path d="M0 0 C1.67542976 0.28604898 3.34385343 0.61781233 5 1 C5.06058594 1.71027344 5.12117188 2.42054687 5.18359375 3.15234375 C5.30927734 4.53099609 5.30927734 4.53099609 5.4375 5.9375 C5.51871094 6.85402344 5.59992188 7.77054687 5.68359375 8.71484375 C5.76044976 10.96159732 5.76044976 10.96159732 7 12 C8.51469448 12.23192865 10.03754562 12.41215238 11.5625 12.5625 C12.38878906 12.64628906 13.21507812 12.73007813 14.06640625 12.81640625 C14.70449219 12.87699219 15.34257812 12.93757813 16 13 C16.33 14.32 16.66 15.64 17 17 C16.37351563 17.06058594 15.74703125 17.12117188 15.1015625 17.18359375 C13.87566406 17.30927734 13.87566406 17.30927734 12.625 17.4375 C11.81289062 17.51871094 11.00078125 17.59992188 10.1640625 17.68359375 C7.95727195 17.89090114 7.95727195 17.89090114 6 19 C5.88113449 38.03128328 6.02337639 56.98700838 7 76 C9.31 76.66 11.62 77.32 14 78 C13.69611836 80.93752254 13.19330344 81.84080893 10.875 83.75 C7.2901772 85.30861861 4.87882048 85.41558791 1 85 C-2.70799697 83.31454683 -4.96105977 81.5151571 -7 78 C-7.38500622 75.12711936 -7.60256582 72.45629879 -7.68359375 69.57421875 C-7.73343666 68.32411263 -7.73343666 68.32411263 -7.7842865 67.04875183 C-8.13359796 57.30613868 -8.10983816 47.5596955 -8.0625 37.8125 C-8.05746467 35.97200645 -8.05290543 34.13151154 -8.04882812 32.29101562 C-8.03800712 27.86064218 -8.02085997 23.43033707 -8 19 C-9.32 18.34 -10.64 17.68 -12 17 C-11.875 14.8125 -11.875 14.8125 -11 12 C-9.5497812 10.7431437 -8.09244228 9.4905212 -6.5625 8.33203125 C-4.1436891 6.26999495 -2.64934637 3.68782371 -1 1 C-0.67 0.67 -0.34 0.34 0 0 Z " fill="#050505" transform="translate(232,108)"/>
<path d="M0 0 C0.99386719 0.00902344 1.98773438 0.01804687 3.01171875 0.02734375 C4.15060547 0.04474609 4.15060547 0.04474609 5.3125 0.0625 C5.32280746 1.04476059 5.33311493 2.02702118 5.34373474 3.03904724 C5.4417375 12.32218847 5.54449533 21.60526667 5.65183926 30.88830471 C5.70686709 35.66013346 5.76025341 40.43196852 5.80981445 45.20385742 C5.85775691 49.81397028 5.91010776 54.4240144 5.96544075 59.03404427 C5.98572977 60.78776385 6.0044638 62.54150218 6.02157402 64.29525566 C6.04591885 66.76257936 6.07592808 69.22977685 6.10717773 71.69702148 C6.1129332 72.41272308 6.11868866 73.12842468 6.12461853 73.86581421 C6.19772533 78.98543365 6.68992489 83.97989482 7.3125 89.0625 C1.7025 89.0625 -3.9075 89.0625 -9.6875 89.0625 C-9.36225342 87.74266113 -9.03700684 86.42282227 -8.7019043 85.06298828 C-7.25227262 77.76904196 -7.41870284 70.45502444 -7.45703125 63.0546875 C-7.45822636 61.51872802 -7.45867551 59.98276779 -7.4584198 58.44680786 C-7.45997484 55.24460197 -7.46818975 52.04250942 -7.48168945 48.84033203 C-7.49870651 44.75420033 -7.50250229 40.66819234 -7.50174427 36.58202934 C-7.50201727 33.41629882 -7.50751887 30.25059484 -7.51474571 27.0848732 C-7.51790675 25.57871831 -7.51989372 24.07256045 -7.52063942 22.56640244 C-7.52747355 11.77650849 -7.52747355 11.77650849 -8.6875 1.0625 C-5.53819107 0.01273036 -3.29935544 -0.03881595 0 0 Z " fill="#010101" transform="translate(416.6875,102.9375)"/>
<path d="M0 0 C1.49080078 0.02707031 1.49080078 0.02707031 3.01171875 0.0546875 C3.77097656 0.07789062 4.53023438 0.10109375 5.3125 0.125 C6.50392379 3.69927136 6.42906563 6.92117094 6.39428711 10.63818359 C6.39122055 11.40112228 6.38815399 12.16406097 6.38499451 12.95011902 C6.37784164 14.60670392 6.36845277 16.26328033 6.35709953 17.91984177 C6.33971644 20.5426464 6.32941211 23.16539016 6.32118225 25.78823853 C6.2967234 33.24560307 6.26118197 40.70288569 6.21655273 48.16015625 C6.1897492 52.72178226 6.17271927 57.28336074 6.16168404 61.84505081 C6.15548003 63.58257426 6.14548194 65.32008849 6.13160515 67.0575676 C6.1123581 69.48944858 6.10548848 71.92108037 6.10131836 74.35302734 C6.09255676 75.06904617 6.08379517 75.785065 6.07476807 76.52278137 C6.08262738 80.54386726 6.67532434 83.47213203 8.3125 87.125 C8.3125 88.115 8.3125 89.105 8.3125 90.125 C2.7025 90.125 -2.9075 90.125 -8.6875 90.125 C-8.36136719 88.45179688 -8.03523438 86.77859375 -7.69921875 85.0546875 C-6.49246664 77.76731065 -6.42471696 70.61734642 -6.5 63.25 C-6.5076048 61.83431179 -6.51483848 60.41862155 -6.52172852 59.00292969 C-6.59637766 47.45847534 -6.84248745 35.91599113 -7.125 24.375 C-7.14446686 23.54486389 -7.16393372 22.71472778 -7.18399048 21.85943604 C-7.24118713 19.49466157 -7.30491204 17.13016325 -7.37109375 14.765625 C-7.38782135 14.06494904 -7.40454895 13.36427307 -7.42178345 12.6423645 C-7.53158297 9.03329474 -7.85274908 5.64054479 -8.6875 2.125 C-5.26655758 -0.15562828 -4.00562778 -0.09425007 0 0 Z " fill="#060606" transform="translate(390.6875,101.875)"/>
<path d="M0 0 C2.14576637 -0.02685938 4.29162645 -0.04633088 6.4375 -0.0625 C7.63246094 -0.07410156 8.82742188 -0.08570312 10.05859375 -0.09765625 C13 0 13 0 14 1 C14.11836726 2.9259479 14.16739511 4.85618876 14.18945312 6.78564453 C14.21452942 8.64360153 14.21452942 8.64360153 14.2401123 10.53909302 C14.24679428 11.20570072 14.25347626 11.87230843 14.26036072 12.55911636 C14.28136983 14.64470788 14.30840042 16.73014349 14.33703613 18.81564331 C14.39683175 23.25203519 14.44883774 27.68850135 14.5 32.125 C14.55936205 37.2458461 14.62194522 42.36661796 14.69187927 47.48733139 C14.71828078 49.53393934 14.73920932 51.5805552 14.7598877 53.62722778 C14.77660522 54.88477875 14.79332275 56.14232971 14.81054688 57.43798828 C14.82307495 58.53861603 14.83560303 59.63924377 14.84851074 60.77322388 C15.00938555 64.19991569 15.51485884 67.60401185 16 71 C10.72 71 5.44 71 0 71 C0.16226074 69.93845703 0.32452148 68.87691406 0.49169922 67.78320312 C1.20760356 62.01997588 1.14314067 56.26834952 1.1328125 50.46875 C1.13376923 49.2782605 1.13472595 48.087771 1.13571167 46.86120605 C1.1363898 44.35327094 1.13456119 41.84533405 1.13037109 39.33740234 C1.12501771 35.51265496 1.13032861 31.68802501 1.13671875 27.86328125 C1.1360579 25.41927058 1.13477661 22.97525997 1.1328125 20.53125 C1.13483673 19.39457886 1.13686096 18.25790771 1.13894653 17.08679199 C1.12195976 11.29522435 0.87540675 5.72709003 0 0 Z " fill="#020202" transform="translate(255,121)"/>
<path d="M0 0 C4.4596199 4.19728932 6.5911255 10.07188428 7.21875 16.1015625 C7.25 18 7.25 18 7 21 C6 22 6 22 4.14233398 22.11352539 C3.35157471 22.10828857 2.56081543 22.10305176 1.74609375 22.09765625 C0.89208984 22.09443359 0.03808594 22.09121094 -0.84179688 22.08789062 C-1.73962891 22.07951172 -2.63746094 22.07113281 -3.5625 22.0625 C-4.46419922 22.05798828 -5.36589844 22.05347656 -6.29492188 22.04882812 C-8.53001314 22.03700225 -10.76497437 22.0205222 -13 22 C-13.5074118 14.45929683 -13.06880309 8.51567779 -9 2 C-6.0498849 -1.23561011 -4.07829822 -1.63131929 0 0 Z " fill="#F7F7F7" transform="translate(356,126)"/>
<path d="M0 0 C2.24893954 -0.10823773 4.49937575 -0.18569645 6.75 -0.25 C8.00296875 -0.29640625 9.2559375 -0.3428125 10.546875 -0.390625 C14 0 14 0 16.421875 1.76171875 C19.01247442 5.43600952 18.56165901 7.57693533 18 12 C15.19188741 15.36973511 11.14213956 15.96446511 7 17 C7 19.97 7 22.94 7 26 C5.33388095 26.042721 3.66617115 26.04063832 2 26 C0.25493385 24.25493385 0.76717216 21.80960857 0.68359375 19.43359375 C0.64169922 18.30888672 0.59980469 17.18417969 0.55664062 16.02539062 C0.51732422 14.84138672 0.47800781 13.65738281 0.4375 12.4375 C0.39431641 11.24962891 0.35113281 10.06175781 0.30664062 8.83789062 C0.20016454 5.89205216 0.09815159 2.9461257 0 0 Z " fill="#131212" transform="translate(181,61)"/>
<path d="M0 0 C3 1 3 1 4.28125 3.15234375 C6.98738465 9.3365553 9.27742771 15.47051989 11 22 C11.21140625 22.73347656 11.4228125 23.46695313 11.640625 24.22265625 C11.75921875 24.80917969 11.8778125 25.39570312 12 26 C11 27 11 27 8.4375 27.0625 C7.633125 27.041875 6.82875 27.02125 6 27 C5.34 25.02 4.68 23.04 4 21 C0.94998457 20.71226269 -1.96273596 20.53980848 -5 21 C-6.9354148 23.39056942 -6.9354148 23.39056942 -8 26 C-8.99 26 -9.98 26 -11 26 C-10.42983247 21.0148866 -8.79526128 16.90805889 -6.625 12.4375 C-6.32078125 11.79103516 -6.0165625 11.14457031 -5.703125 10.47851562 C-3.98154068 6.86245284 -2.12418572 3.3947876 0 0 Z " fill="#0F0F0F" transform="translate(297,58)"/>
<path d="M0 0 C1.87060547 0.28613281 1.87060547 0.28613281 4 1 C5.5621348 3.58194355 6.86449307 6.02768845 8.125 8.75 C8.47175781 9.46671875 8.81851563 10.1834375 9.17578125 10.921875 C14 20.97695163 14 20.97695163 14 26 C11.6875 25.8125 11.6875 25.8125 9 25 C8.566875 24.154375 8.13375 23.30875 7.6875 22.4375 C7.130625 21.633125 6.57375 20.82875 6 20 C3.20964942 19.53308875 0.85284684 19.7661601 -2 20 C-2.4125 20.969375 -2.825 21.93875 -3.25 22.9375 C-5 26 -5 26 -7.1875 26.875 C-7.785625 26.91625 -8.38375 26.9575 -9 27 C-8.45371735 20.67872937 -6.36700755 15.39080049 -3.9375 9.5625 C-3.56044922 8.64017578 -3.18339844 7.71785156 -2.79492188 6.76757812 C-1.87031 4.5087162 -0.93855136 2.2530973 0 0 Z " fill="#111111" transform="translate(215,59)"/>
<path d="M0 0 C0.66 0.33 1.32 0.66 2 1 C2 1.99 2 2.98 2 4 C-0.64 3.67 -3.28 3.34 -6 3 C-6.33 4.65 -6.66 6.3 -7 8 C-6.28972656 8.36351563 -5.57945312 8.72703125 -4.84765625 9.1015625 C2.66082177 13.20858414 2.66082177 13.20858414 4.3125 17.0625 C3.94675907 20.5004647 3.15503927 22.30620091 1 25 C-1.80157448 25.93385816 -3.65447803 26.16354595 -6.5625 26.1875 C-7.74005859 26.20876953 -7.74005859 26.20876953 -8.94140625 26.23046875 C-11 26 -11 26 -13 24 C-13 23.01 -13 22.02 -13 21 C-12.2265625 21.5259375 -12.2265625 21.5259375 -11.4375 22.0625 C-8.05993333 23.3615641 -5.49531943 22.67217681 -2 22 C-1.87786106 19.65851769 -1.87786106 19.65851769 -3 17 C-4.94355321 15.49641598 -6.94441399 14.30864774 -9.08984375 13.11328125 C-11 12 -11 12 -13 10 C-12.86895515 6.39626668 -12.74035058 3.91803472 -10.4375 1.0625 C-6.80695544 -0.52004507 -3.95200431 -0.25496802 0 0 Z " fill="#0E0E0D" transform="translate(250,58)"/>
<path d="M0 0 C2 1.5 2 1.5 3 3 C-0.37817425 3.84454356 -2.67465243 4.10844919 -6 3 C-6.33 4.65 -6.66 6.3 -7 8 C-6.06027344 8.61488281 -6.06027344 8.61488281 -5.1015625 9.2421875 C-4.28429687 9.78101562 -3.46703125 10.31984375 -2.625 10.875 C-1.81289063 11.40867187 -1.00078125 11.94234375 -0.1640625 12.4921875 C2 14 2 14 4 16 C3.92903335 19.90316601 3.86497221 22.16205817 1 24.9375 C-3.05984832 26.37536295 -6.73831163 26.25068755 -11 26 C-11.66 24.68 -12.32 23.36 -13 22 C-9.7 22.33 -6.4 22.66 -3 23 C-2.67 21.35 -2.34 19.7 -2 18 C-2.63808594 17.59007813 -3.27617187 17.18015625 -3.93359375 16.7578125 C-4.75988281 16.21898438 -5.58617187 15.68015625 -6.4375 15.125 C-7.26121094 14.59132813 -8.08492188 14.05765625 -8.93359375 13.5078125 C-11 12 -11 12 -12 10 C-12.56949153 3.73559322 -12.56949153 3.73559322 -10.5 1.0625 C-6.74515828 -0.53330773 -4.08109691 -0.3886759 0 0 Z " fill="#0C0C0C" transform="translate(330,60)"/>
<path d="M0 0 C2.375 1 2.375 1 4 3 C4.56153595 7.42209561 4.79893062 9.72171101 2.4375 13.5 C-0.94888329 15.58392818 -3.09385318 15.55802097 -7 15 C-9.5 13.4375 -9.5 13.4375 -11 11 C-11 7.07058944 -10.55584616 4.8028889 -8.3125 1.5625 C-5.28110505 -0.48573983 -3.59450128 -0.5241981 0 0 Z " fill="#060606" transform="translate(265,102)"/>
<path d="M0 0 C6.27 0 12.54 0 19 0 C19.33 1.32 19.66 2.64 20 4 C17.69 3.67 15.38 3.34 13 3 C10.86395692 6.20406462 10.75791092 6.99600747 10.8046875 10.66796875 C10.81113281 11.56064453 10.81757813 12.45332031 10.82421875 13.37304688 C10.84097656 14.30181641 10.85773438 15.23058594 10.875 16.1875 C10.88853516 17.59805664 10.88853516 17.59805664 10.90234375 19.03710938 C10.92590944 21.35832968 10.95880884 23.67903644 11 26 C9.68 26 8.36 26 7 26 C6.67 18.41 6.34 10.82 6 3 C4.02 3 2.04 3 0 3 C0 2.01 0 1.02 0 0 Z " fill="#131313" transform="translate(262,58)"/>
<path d="M0 0 C2.5 0.25 2.5 0.25 4.5 2.25 C4.86796448 5.12012296 4.87509409 6.65774618 3.3125 9.125 C1.5 10.25 1.5 10.25 -1.125 10 C-3.5 9.25 -3.5 9.25 -4.5 8.25 C-4.6875 5.3125 -4.6875 5.3125 -4.5 2.25 C-2.5 0.25 -2.5 0.25 0 0 Z " fill="#F0F0F0" transform="translate(190.5,63.75)"/>
<path d="M0 0 C0.66 0 1.32 0 2 0 C4 3 4 3 3.625 5.1875 C3.41875 5.785625 3.2125 6.38375 3 7 C1.35 6.67 -0.3 6.34 -2 6 C-1.125 1.125 -1.125 1.125 0 0 Z " fill="#D8D8D7" transform="translate(296,67)"/>
<path d="M0 0 C1.9375 0.6875 1.9375 0.6875 4 2 C4.75 4.625 4.75 4.625 5 7 C3.35 7 1.7 7 0 7 C0 4.69 0 2.38 0 0 Z " fill="#F0F0F0" transform="translate(214,67)"/>
<path d="M0 0 C2.33944736 0.28730055 4.6739143 0.61936779 7 1 C7 1.99 7 2.98 7 4 C3.62537285 3.45276317 1.91765 2.9451 -1 1 C-0.67 0.67 -0.34 0.34 0 0 Z " fill="#030302" transform="translate(245,58)"/>
</svg>
