<?xml version="1.0" encoding="UTF-8"?>
<svg version="1.1" xmlns="http://www.w3.org/2000/svg" width="521" height="252">
<path d="M0 0 C171.93 0 343.86 0 521 0 C521 83.16 521 166.32 521 252 C349.07 252 177.14 252 0 252 C0 168.84 0 85.68 0 0 Z " fill="#FEFEFE" transform="translate(0,0)"/>
<path d="M0 0 C0.35602295 0.66717041 0.7120459 1.33434082 1.07885742 2.02172852 C9.0041961 16.85464688 17.07642967 31.58359896 25.40429688 46.1953125 C27.51930597 49.91275811 29.61959828 53.63842247 31.72021484 57.36401367 C37.42543816 67.48068151 43.17977022 77.56874967 48.95248413 87.64700317 C54.4689713 97.28095635 59.91786968 106.95055246 65.30834961 116.65576172 C68.3900919 122.18949693 71.56429323 127.63911455 74.91162109 133.01708984 C76 135 76 135 76 137 C68.24620292 137.11590012 60.49260907 137.20471759 52.73816299 137.25906086 C49.13730504 137.28514472 45.53704008 137.32051793 41.93652344 137.37719727 C38.46109959 137.43156439 34.98624568 137.46142966 31.51042938 137.47438622 C29.54047326 137.48810817 27.57074618 137.52713486 25.60113525 137.56648254 C23.79972076 137.56704903 23.79972076 137.56704903 21.96191406 137.56762695 C20.90490295 137.57873001 19.84789185 137.58983307 18.7588501 137.60127258 C14.33122238 136.63630129 12.96257903 133.48608693 10.62231445 129.87304688 C10.2068335 129.16212891 9.79135254 128.45121094 9.36328125 127.71875 C8.87746582 126.89213867 8.39165039 126.06552734 7.89111328 125.21386719 C7.3701709 124.31829102 6.84922852 123.42271484 6.3125 122.5 C5.75288574 121.54512695 5.19327148 120.59025391 4.61669922 119.60644531 C3.39308532 117.51786872 2.17115299 115.42830628 0.95068359 113.33789062 C-1.06214619 109.89365924 -3.08275247 106.45405386 -5.10546875 103.015625 C-12.63318365 90.21293633 -20.11169573 77.38335301 -27.515625 64.50854492 C-30.66036029 59.04287663 -33.82126555 53.58756967 -37.01171875 48.1484375 C-37.65987549 47.04282471 -38.30803223 45.93721191 -38.97583008 44.7980957 C-40.21412177 42.68843126 -41.45473444 40.58012691 -42.69799805 38.47338867 C-43.24883057 37.53470947 -43.79966309 36.59603027 -44.3671875 35.62890625 C-44.85300293 34.80463135 -45.33881836 33.98035645 -45.83935547 33.13110352 C-47 31 -47 31 -48 28 C-47.31711914 27.61368408 -46.63423828 27.22736816 -45.93066406 26.8293457 C-42.70010048 24.99679904 -39.47351431 23.15740964 -36.25 21.3125 C-35.66597412 20.97830048 -35.08194824 20.64410095 -34.48022461 20.29977417 C-25.44204089 15.11416742 -16.62248403 9.67585935 -7.96972656 3.86254883 C-7.2062793 3.35232178 -6.44283203 2.84209473 -5.65625 2.31640625 C-4.99431641 1.86724854 -4.33238281 1.41809082 -3.65039062 0.95532227 C-2 0 -2 0 0 0 Z " fill="#010101" transform="translate(292,23)"/>
<path d="M0 0 C0.5878125 1.26263672 0.5878125 1.26263672 1.1875 2.55078125 C6.98494264 14.69027988 13.91882809 26.13508354 20.82279968 37.66534424 C26.4546095 47.08663602 31.90584535 56.61341908 37.359375 66.13867188 C38.87897995 68.78893527 40.40724754 71.43400093 41.9375 74.078125 C42.77133592 75.53096166 43.60471146 76.98406271 44.4375 78.4375 C44.80931396 79.07582764 45.18112793 79.71415527 45.56420898 80.37182617 C47.14530169 83.15319843 48 84.74031356 48 88 C33.48 88 18.96 88 4 88 C4 91.96 4 95.92 4 100 C-0.62 100 -5.24 100 -10 100 C-10.04125 98.56011719 -10.0825 97.12023437 -10.125 95.63671875 C-10.76822571 89.28821503 -13.50205164 85.02693008 -17 79.8125 C-18.19735862 77.95490646 -19.39397065 76.09683148 -20.58984375 74.23828125 C-21.17620605 73.34061035 -21.76256836 72.44293945 -22.36669922 71.51806641 C-24.50525865 68.2210407 -26.55108424 64.87566393 -28.5625 61.5 C-28.90555176 60.92685059 -29.24860352 60.35370117 -29.60205078 59.76318359 C-32.92001625 54.18967037 -36.14988819 48.56509484 -39.375 42.9375 C-39.88748291 42.04417969 -40.39996582 41.15085938 -40.92797852 40.23046875 C-48 27.83124131 -48 27.83124131 -48 25 C-47.20005615 24.56244385 -46.4001123 24.1248877 -45.57592773 23.67407227 C-41.86141145 21.63997695 -38.14904973 19.60200136 -34.4375 17.5625 C-33.77372345 17.19817871 -33.1099469 16.83385742 -32.42605591 16.45849609 C-23.69004713 11.65928795 -15.06104296 6.76542096 -6.65234375 1.40625 C-4 0 -4 0 0 0 Z " fill="#010101" transform="translate(239,72)"/>
<path d="M0 0 C1.79244141 0.01740234 1.79244141 0.01740234 3.62109375 0.03515625 C5.41740234 0.04869141 5.41740234 0.04869141 7.25 0.0625 C8.17683594 0.07410156 9.10367188 0.08570313 10.05859375 0.09765625 C10.10487525 9.0595802 10.14044155 18.0214632 10.16221809 26.98348045 C10.17266821 31.14462878 10.18684967 35.30569551 10.20947266 39.46679688 C10.23115746 43.48032054 10.24315312 47.49376558 10.24834824 51.50734329 C10.25205186 53.04080061 10.25928386 54.57425349 10.27005386 56.10767746 C10.28451104 58.25075426 10.28657415 60.39350361 10.28564453 62.53662109 C10.29008575 63.75795746 10.29452698 64.97929382 10.29910278 66.23764038 C10.05859375 69.09765625 10.05859375 69.09765625 8.05859375 71.09765625 C5.74609375 71.328125 5.74609375 71.328125 3.05859375 71.28515625 C2.17171875 71.27871094 1.28484375 71.27226562 0.37109375 71.265625 C-1.94140625 71.09765625 -1.94140625 71.09765625 -3.94140625 70.09765625 C-3.94140625 69.10765625 -3.94140625 68.11765625 -3.94140625 67.09765625 C-4.82828125 67.57203125 -5.71515625 68.04640625 -6.62890625 68.53515625 C-13.68474965 71.86338427 -21.45240498 72.02553677 -28.9296875 69.91015625 C-36.96375872 66.66532748 -41.1981984 60.58407195 -44.94140625 53.09765625 C-45.58194401 43.02150449 -45.6650721 34.58686734 -39.19140625 26.34765625 C-34.14449163 20.86242399 -28.52314795 18.42627772 -21.109375 17.89453125 C-20.12582031 17.8790625 -19.14226562 17.86359375 -18.12890625 17.84765625 C-17.15308594 17.821875 -16.17726563 17.79609375 -15.171875 17.76953125 C-11.02047864 18.19119666 -7.79749129 19.51353483 -3.94140625 21.09765625 C-3.94664307 20.49703369 -3.95187988 19.89641113 -3.95727539 19.27758789 C-3.97798639 16.57178787 -3.9910475 13.86600448 -4.00390625 11.16015625 C-4.01228516 10.21462891 -4.02066406 9.26910156 -4.02929688 8.29492188 C-4.03251953 7.39580078 -4.03574219 6.49667969 -4.0390625 5.5703125 C-4.04429932 4.73765869 -4.04953613 3.90500488 -4.05493164 3.04711914 C-3.86784489 -0.16554252 -3.26672345 0.10845695 0 0 Z " fill="#020202" transform="translate(291.94140625,158.90234375)"/>
<path d="M0 0 C10.75 -0.125 10.75 -0.125 13 1 C13 23.77 13 46.54 13 70 C10.35541621 71.32229189 8.32238699 71.09677194 5.375 71.0625 C4.37210938 71.05347656 3.36921875 71.04445313 2.3359375 71.03515625 C1.56507813 71.02355469 0.79421875 71.01195312 0 71 C0 69.68 0 68.36 0 67 C-1.051875 67.474375 -2.10375 67.94875 -3.1875 68.4375 C-9.60055837 71.15120933 -16.57905636 72.3401213 -23.37109375 70.28125 C-31.15514574 67.02586232 -36.5064248 62.68167867 -40.0859375 54.9453125 C-42.40395963 47.47613009 -42.12761987 38.34624646 -39.234375 31.03125 C-35.77114821 25.33226921 -29.85119733 20.38978707 -23.4375 18.3984375 C-14.95236873 17.01144489 -7.77111144 17.11444428 0 21 C0 14.07 0 7.14 0 0 Z " fill="#020202" transform="translate(209,159)"/>
<path d="M0 0 C0.33 -0.66 0.66 -1.32 1 -2 C2.81242052 -2.02687279 4.62495233 -2.04633715 6.4375 -2.0625 C7.44683594 -2.07410156 8.45617187 -2.08570313 9.49609375 -2.09765625 C12 -2 12 -2 13 -1 C13.10367027 0.55450988 13.13851522 2.11368255 13.14526367 3.67163086 C13.15164352 4.66613754 13.15802338 5.66064423 13.16459656 6.68528748 C13.16570938 7.76754105 13.1668222 8.84979462 13.16796875 9.96484375 C13.17296135 11.62030968 13.17296135 11.62030968 13.17805481 13.30921936 C13.18312886 15.64876894 13.18546299 17.98832578 13.18530273 20.32788086 C13.18748848 23.91857766 13.20563734 27.50896704 13.22460938 31.09960938 C13.22754327 33.36718644 13.22952809 35.63476498 13.23046875 37.90234375 C13.23765427 38.98257309 13.24483978 40.06280243 13.25224304 41.17576599 C13.24916641 42.17342484 13.24608978 43.17108368 13.24291992 44.19897461 C13.24434494 45.07976181 13.24576996 45.96054901 13.24723816 46.86802673 C13 49 13 49 11 51 C8.6171875 51.1953125 8.6171875 51.1953125 5.875 51.125 C4.96492188 51.10695312 4.05484375 51.08890625 3.1171875 51.0703125 C2.41851562 51.04710937 1.71984375 51.02390625 1 51 C0.67 50.01 0.34 49.02 0 48 C-0.51046875 48.2165625 -1.0209375 48.433125 -1.546875 48.65625 C-10.15641692 51.95352137 -19.29279814 52.43336402 -27.97265625 49.02734375 C-34.21958577 45.86175134 -38.22883913 41.34433606 -41.109375 34.96875 C-43.54532683 26.84891057 -43.2886395 18.55629833 -39.5 10.9375 C-35.70670034 4.93962383 -31.27987031 1.41484602 -24.8125 -1.375 C-16.35022212 -2.76225867 -8.18886698 -2.56905631 0 0 Z " fill="#050505" transform="translate(348,179)"/>
<path d="M0 0 C5.80710779 -0.25117248 10.50818855 1.01774133 15.8828125 3.15234375 C16.2128125 2.16234375 16.5428125 1.17234375 16.8828125 0.15234375 C18.69523302 0.12547096 20.50776483 0.1060066 22.3203125 0.08984375 C23.32964844 0.07824219 24.33898437 0.06664062 25.37890625 0.0546875 C27.8828125 0.15234375 27.8828125 0.15234375 28.8828125 1.15234375 C28.96944492 3.29010378 28.98321639 5.43084671 28.96875 7.5703125 C28.96275284 8.56770699 28.96275284 8.56770699 28.95663452 9.58525085 C28.89895829 17.10059465 28.75890397 24.61469872 28.56542969 32.12768555 C28.52644683 33.70896885 28.49173586 35.29036229 28.4609375 36.87182617 C28.41556241 39.19091861 28.35768416 41.50939233 28.296875 43.828125 C28.27954819 44.89043083 28.27954819 44.89043083 28.26187134 45.97419739 C28.11106024 50.92409601 28.11106024 50.92409601 25.8828125 53.15234375 C23.5 53.34765625 23.5 53.34765625 20.7578125 53.27734375 C19.84773438 53.25929687 18.93765625 53.24125 18 53.22265625 C17.30132812 53.19945312 16.60265625 53.17625 15.8828125 53.15234375 C15.5528125 52.16234375 15.2228125 51.17234375 14.8828125 50.15234375 C14.05523437 50.63960937 13.22765625 51.126875 12.375 51.62890625 C8.46081661 53.33643592 5.19735944 53.61356269 1.0078125 53.52734375 C0.29890869 53.51719238 -0.40999512 53.50704102 -1.14038086 53.49658203 C-9.15216459 53.25869042 -14.64693446 51.28536196 -20.578125 45.828125 C-26.42711555 39.45955408 -27.48858907 32.37282735 -27.3984375 24 C-26.70348258 16.96358143 -23.11695891 11.04100913 -18.1171875 6.15234375 C-12.18852586 2.03242634 -7.18670904 0.51712482 0 0 Z " fill="#040404" transform="translate(135.1171875,176.84765625)"/>
<path d="M0 0 C0.44802979 0.8564209 0.89605957 1.7128418 1.35766602 2.59521484 C3.04868141 5.82315557 4.74877538 9.04624476 6.45141602 12.26806641 C7.18202578 13.65351186 7.91028611 15.04019927 8.63598633 16.42822266 C12.60660991 24.01871769 16.6053629 31.2937282 21.76538086 38.16650391 C23 40 23 40 23 42 C15.16807298 42.23230136 7.33696068 42.40967455 -0.49755192 42.51812172 C-4.13624784 42.57019107 -7.77257808 42.64072144 -11.40991211 42.75439453 C-14.92442726 42.86353444 -18.43667738 42.92293329 -21.95275688 42.94877243 C-23.93810267 42.97608711 -25.92254313 43.05408633 -27.9065094 43.13296509 C-36.7521207 43.13843816 -36.7521207 43.13843816 -40.37350464 39.83465576 C-43.43697268 35.56113324 -45.7798286 31.15183482 -47 26 C-46.45287354 25.71914551 -45.90574707 25.43829102 -45.34204102 25.14892578 C-35.66060527 20.16516487 -26.01545456 15.14230336 -16.625 9.625 C-15.9554126 9.23328613 -15.2858252 8.84157227 -14.59594727 8.43798828 C-11.33069413 6.49608492 -8.21205836 4.45927813 -5.1484375 2.2109375 C-2 0 -2 0 0 0 Z " fill="#060606" transform="translate(185,118)"/>
<path d="M0 0 C3.1483215 2.85918994 5.21676592 5.13873037 5.8515625 9.42578125 C5.8721875 10.43640625 5.8928125 11.44703125 5.9140625 12.48828125 C3.66571754 12.62354264 1.41503736 12.72038929 -0.8359375 12.80078125 C-2.08890625 12.85878906 -3.341875 12.91679687 -4.6328125 12.9765625 C-8.0859375 12.48828125 -8.0859375 12.48828125 -10.31640625 10.02734375 C-11.19232422 8.77050781 -11.19232422 8.77050781 -12.0859375 7.48828125 C-15.58871856 6.41611486 -15.58871856 6.41611486 -19.0859375 6.48828125 C-22.30998728 8.15782944 -22.30998728 8.15782944 -22.7734375 11.11328125 C-22.8765625 11.89703125 -22.9796875 12.68078125 -23.0859375 13.48828125 C-21.85617187 13.74222656 -20.62640625 13.99617188 -19.359375 14.2578125 C-17.7264711 14.60503919 -16.09366361 14.95271948 -14.4609375 15.30078125 C-13.65269531 15.46642578 -12.84445312 15.63207031 -12.01171875 15.80273438 C-5.22009544 17.26597029 0.89279386 19.40432408 5.7734375 24.5546875 C8.15927276 28.59916851 7.65879922 33.0002626 6.9140625 37.48828125 C5.25270451 42.97486473 1.81081304 45.74900931 -3.08203125 48.48828125 C-9.31126751 51.596828 -15.40919835 52.65533638 -22.23046875 50.953125 C-29.49828248 48.41008501 -35.5852531 44.53511349 -39.0859375 37.48828125 C-39.3984375 34.05078125 -39.3984375 34.05078125 -39.0859375 31.48828125 C-27.02633133 31.27753085 -27.02633133 31.27753085 -24.0859375 32.48828125 C-23.4878125 33.49890625 -22.8896875 34.50953125 -22.2734375 35.55078125 C-20.47901228 38.60004521 -20.47901228 38.60004521 -18.1640625 38.98828125 C-15.10362018 39.07763723 -12.70863856 38.87746941 -10.0859375 37.23828125 C-8.75517821 35.24537989 -8.75517821 35.24537989 -9.0859375 31.48828125 C-13.93259545 29.49259857 -18.57391487 28.12172984 -23.7109375 27.05078125 C-29.90877294 25.67348449 -33.39533562 24.0891964 -37.9609375 19.67578125 C-40.19736981 15.32716287 -39.37609562 11.46116436 -38.0234375 6.92578125 C-35.30523336 2.103161 -32.20567366 -1.32189237 -26.9453125 -3.328125 C-17.80947383 -5.61208467 -7.88792472 -5.71652971 0 0 Z " fill="#050505" transform="translate(405.0859375,180.51171875)"/>
<path d="M0 0 C0.9796875 0.01417969 1.959375 0.02835938 2.96875 0.04296875 C3.9484375 0.04941406 4.928125 0.05585938 5.9375 0.0625 C8.46875 0.23046875 8.46875 0.23046875 10.46875 1.23046875 C10.51933729 8.17216897 10.55443579 15.1138219 10.57861328 22.05566406 C10.58868924 24.41863786 10.60235029 26.78159914 10.61962891 29.14453125 C10.64380724 32.53518763 10.65521699 35.92567959 10.6640625 39.31640625 C10.67438507 40.37789886 10.68470764 41.43939148 10.69534302 42.53305054 C10.69549408 43.51391632 10.69564514 44.4947821 10.69580078 45.50537109 C10.700242 46.37140961 10.70468323 47.23744812 10.70925903 48.12973022 C10.46875 50.23046875 10.46875 50.23046875 8.46875 52.23046875 C5.68359375 52.4609375 5.68359375 52.4609375 2.40625 52.41796875 C0.78009766 52.40830078 0.78009766 52.40830078 -0.87890625 52.3984375 C-3.53125 52.23046875 -3.53125 52.23046875 -4.53125 51.23046875 C-4.63483779 49.70660644 -4.66976138 48.17799889 -4.67651367 46.65063477 C-4.68289352 45.67614883 -4.68927338 44.7016629 -4.69584656 43.69764709 C-4.69695938 42.6372673 -4.6980722 41.57688751 -4.69921875 40.484375 C-4.70254715 39.40292709 -4.70587555 38.32147919 -4.70930481 37.20726013 C-4.71437877 34.91478909 -4.71671299 32.62231063 -4.71655273 30.32983398 C-4.71873845 26.81156308 -4.73688728 23.29360594 -4.75585938 19.77539062 C-4.75879328 17.5533865 -4.76077809 15.33138087 -4.76171875 13.109375 C-4.76890427 12.05101944 -4.77608978 10.99266388 -4.78349304 9.90223694 C-4.78041641 8.92459885 -4.77733978 7.94696075 -4.77416992 6.93969727 C-4.77559494 6.07667496 -4.77701996 5.21365265 -4.77848816 4.32447815 C-4.38935931 1.02871071 -3.21993606 0.29317319 0 0 Z " fill="#0C0C0C" transform="translate(232.53125,176.76953125)"/>
<path d="M0 0 C3.73644125 1.29338351 5.65541418 2.63727809 8.375 5.5 C11.12997802 11.43379882 10.89347491 17.26993777 8.875 23.4375 C6.04574798 27.30414443 3.4534649 29.60904137 -1.40234375 30.3828125 C-5.7165487 30.57743829 -8.49358529 30.23939604 -12.4375 28.375 C-15.98602312 25.08612492 -17.71780441 22.44177575 -18.28125 17.56640625 C-18.45866777 12.59131622 -18.35278961 8.93085679 -15 5 C-10.01201959 0.62030989 -6.65831866 -0.67080076 0 0 Z " fill="#F9F8F8" transform="translate(337,188)"/>
<path d="M0 0 C4.21943989 1.903992 7.26500141 3.98937694 10 7.75 C11.55893768 12.81654745 12.16108843 17.30461615 10.015625 22.28515625 C7.82128566 26.01688766 6.15470524 28.44480292 2 30 C-2.5915174 30.7312677 -7.10497156 31.07814881 -11.23828125 28.7265625 C-13.66522174 26.66642668 -15.57002793 24.85994413 -17 22 C-17.14851844 20.06640414 -17.22130833 18.12657903 -17.25 16.1875 C-17.27578125 15.14980469 -17.3015625 14.11210937 -17.328125 13.04296875 C-16.86828627 8.77851191 -15.40589056 6.21404196 -12.16796875 3.41796875 C-4.99257058 -1.04011887 -4.99257058 -1.04011887 0 0 Z " fill="#F8F8F8" transform="translate(139,188)"/>
<path d="M0 0 C3.50321338 2.95826908 6.32699838 5.6474628 7.16015625 10.328125 C7.43363038 16.55857905 5.39313629 20.51065976 1.375 25.25 C-2.47926538 28.24238191 -6.69893559 28.00477045 -11.40234375 27.80078125 C-15.03802716 27.24497551 -16.83498561 26.19801727 -19.1875 23.375 C-22.21089472 18.42663814 -22.02966444 12.97722431 -21.1875 7.375 C-19.17380312 3.46209737 -16.50108673 1.14967935 -12.75 -1.0625 C-7.88438001 -2.13056292 -4.50690978 -2.29764028 0 0 Z " fill="#F9F9F9" transform="translate(202.1875,189.625)"/>
<path d="M0 0 C3.83545373 2.68481761 5.89020442 5.45992719 7 10 C7.42192134 14.55825735 7.55744681 18.57541372 5.875 22.875 C2.73064172 26.43860605 0.27395758 28.82970362 -4.66015625 29.19921875 C-9.40457118 28.9757268 -12.21696934 28.59126805 -16.0625 25.6875 C-20.053421 20.15170635 -20.87888398 15.78455559 -20 9 C-15.4424772 0.04772307 -9.55517851 -1.39863762 0 0 Z " fill="#F9F9F9" transform="translate(280,189)"/>
</svg>
